<svg width="28" height="30" viewBox="0 0 28 30" fill="none" xmlns="http://www.w3.org/2000/svg">
<path d="M0 15.8682C0 8.20903 6.20903 2 13.8683 2C21.5275 2 27.7365 8.20903 27.7365 15.8682C27.7365 23.5275 21.5275 29.7365 13.8683 29.7365C6.20903 29.7365 0 23.5275 0 15.8682ZM13.8683 3.88462C7.24988 3.88462 1.88461 9.24987 1.88461 15.8682C1.88461 22.4867 7.24988 27.8519 13.8683 27.8519C20.4866 27.8519 25.8519 22.4867 25.8519 15.8682C25.8519 9.24987 20.4866 3.88462 13.8683 3.88462Z" fill="#262626"/>
<g clip-path="url(#clip0_595_578)">
<path d="M21.19 15.9401C21.19 16.0635 21.1656 16.1858 21.1184 16.2998C21.0712 16.4139 21.002 16.5175 20.9147 16.6047C20.8274 16.692 20.7237 16.7612 20.6097 16.8085C20.4956 16.8557 20.3734 16.88 20.25 16.88H8.94C8.81656 16.88 8.69431 16.8557 8.58026 16.8085C8.46621 16.7612 8.36256 16.692 8.27527 16.6047C8.18798 16.5175 8.11877 16.4139 8.07153 16.2998C8.02429 16.1858 8 16.0635 8 15.9401C8 15.6908 8.09898 15.4517 8.27527 15.2754C8.45155 15.0991 8.6907 15 8.94 15H20.25C20.4993 15 20.7384 15.0991 20.9147 15.2754C21.091 15.4517 21.19 15.6908 21.19 15.9401Z" fill="#262626"/>
</g>
<defs>
<clipPath id="clip0_595_578">
<rect width="13" height="2" fill="white" transform="translate(8 15)"/>
</clipPath>
</defs>
</svg>
