<svg width="1440" height="794" viewBox="0 0 1440 794" fill="none" xmlns="http://www.w3.org/2000/svg">
<g opacity="0.4" clip-path="url(#clip0_680_467)">
<path d="M707.651 -163.485C681.409 309.79 1038.39 739.681 1508.51 801.859" stroke="#E56F20" stroke-width="1.76604" stroke-miterlimit="10"/>
<path d="M1535.55 283.82C1115.23 543.085 543.111 306.465 433.82 -177.836" stroke="#E56F20" stroke-width="1.76604" stroke-miterlimit="10"/>
<path opacity="0.25" d="M1504.2 881.921C1044.49 768.021 723.479 309.855 773.257 -160.046" stroke="#96C6CC" stroke-width="0.588679" stroke-miterlimit="10"/>
<path opacity="0.25" d="M751.27 -161.199C709.587 309.736 1041.24 758.751 1505.54 856.29" stroke="#96C6CC" stroke-width="0.588679" stroke-miterlimit="10"/>
<path opacity="0.25" d="M729.401 -162.345C695.176 309.236 1038.88 749.528 1506.93 829.836" stroke="#96C6CC" stroke-width="0.588679" stroke-miterlimit="10"/>
<path opacity="0.25" d="M707.651 -163.485C681.409 309.79 1038.39 739.681 1508.51 801.859" stroke="#96C6CC" stroke-width="0.588679" stroke-miterlimit="10"/>
<path opacity="0.25" d="M1511.53 742.008C1041.37 719.934 654.599 310.255 664.52 -166.099" stroke="#96C6CC" stroke-width="0.588679" stroke-miterlimit="10"/>
<path opacity="0.25" d="M686.016 -164.618C667.884 311.052 1041.17 730.501 1509.94 772.342" stroke="#96C6CC" stroke-width="0.588679" stroke-miterlimit="10"/>
<path opacity="0.25" d="M1513.21 710.028C1044.33 709.28 640.889 308.48 642.996 -167.109" stroke="#96C6CC" stroke-width="0.588679" stroke-miterlimit="10"/>
<path opacity="0.25" d="M1514.96 676.636C1046.84 696.91 628.541 308.65 621.686 -167.636" stroke="#96C6CC" stroke-width="0.588679" stroke-miterlimit="10"/>
<path opacity="0.25" d="M1516.8 641.599C1050.03 683.88 616.399 307.816 600.07 -169.123" stroke="#96C6CC" stroke-width="0.588679" stroke-miterlimit="10"/>
<path opacity="0.25" d="M1518.72 604.916C1054.1 669.664 603.631 307.302 578.787 -170.238" stroke="#96C6CC" stroke-width="0.588679" stroke-miterlimit="10"/>
<path opacity="0.25" d="M1520.74 566.352C1057.35 654.618 594.47 306.862 557.859 -171.335" stroke="#96C6CC" stroke-width="0.588679" stroke-miterlimit="10"/>
<path opacity="0.25" d="M1522.86 525.788C1062.74 638.559 584.212 306.539 536.566 -172.215" stroke="#96C6CC" stroke-width="0.588679" stroke-miterlimit="10"/>
<path opacity="0.25" d="M1525.11 482.991C1070.94 622.353 573.909 304.849 515.992 -173.293" stroke="#96C6CC" stroke-width="0.588679" stroke-miterlimit="10"/>
<path opacity="0.25" d="M1527.47 437.843C1079 604.406 564.696 304.631 495.076 -174.625" stroke="#96C6CC" stroke-width="0.588679" stroke-miterlimit="10"/>
<path opacity="0.25" d="M1529.99 389.872C1088.3 585.291 557.588 304.774 474.5 -175.704" stroke="#96C6CC" stroke-width="0.588679" stroke-miterlimit="10"/>
<path opacity="0.25" d="M1532.66 338.845C1100.42 565.17 549.72 305.381 453.924 -176.782" stroke="#96C6CC" stroke-width="0.588679" stroke-miterlimit="10"/>
<path opacity="0.25" d="M1535.55 283.82C1115.23 543.085 543.111 306.465 433.82 -177.836" stroke="#96C6CC" stroke-width="0.588679" stroke-miterlimit="10"/>
<path opacity="0.25" d="M1538.66 224.445C1132.06 520.194 539.595 307.845 413.713 -178.889" stroke="#96C6CC" stroke-width="0.588679" stroke-miterlimit="10"/>
<path opacity="0.25" d="M1542.08 159.191C1155.88 495.019 534.11 309.785 393.844 -179.931" stroke="#96C6CC" stroke-width="0.588679" stroke-miterlimit="10"/>
<path opacity="0.25" d="M1545.89 86.4124C1181.59 467.221 533.851 314.886 374.209 -180.96" stroke="#96C6CC" stroke-width="0.588679" stroke-miterlimit="10"/>
<path opacity="0.25" d="M1550.27 2.93456C1217.73 435.666 536.035 322.312 354.809 -181.976" stroke="#96C6CC" stroke-width="0.588679" stroke-miterlimit="10"/>
<path opacity="0.25" d="M316.832 -183.967C533.029 312.024 1234.91 356.883 1509.02 -121.133" stroke="#96C6CC" stroke-width="0.588679" stroke-miterlimit="10"/>
<path opacity="0.25" d="M298.256 -184.94C518.306 276.708 1177.41 318.207 1451.1 -125.111" stroke="#96C6CC" stroke-width="0.588679" stroke-miterlimit="10"/>
<path opacity="0.25" d="M280.031 -185.895C501.77 242.583 1121.29 282.749 1393.33 -127.314" stroke="#96C6CC" stroke-width="0.588679" stroke-miterlimit="10"/>
<path opacity="0.25" d="M1555.57 -98.2971C1271.27 396.072 542.491 336.938 335.645 -182.981" stroke="#96C6CC" stroke-width="0.588679" stroke-miterlimit="10"/>
<path opacity="0.25" d="M262.16 -186.832C486.29 209.321 1063.79 247.562 1334.64 -130.036" stroke="#96C6CC" stroke-width="0.588679" stroke-miterlimit="10"/>
<path opacity="0.25" d="M244.76 -187.744C468.451 176.482 1008.98 211.574 1275.41 -133.494" stroke="#96C6CC" stroke-width="0.588679" stroke-miterlimit="10"/>
<path opacity="0.25" d="M227.947 -188.625C453.194 145.412 953.373 176.267 1216.53 -137.051" stroke="#96C6CC" stroke-width="0.588679" stroke-miterlimit="10"/>
<path opacity="0.25" d="M211.603 -189.481C432.508 114.158 901.579 141.822 1156.2 -140.095" stroke="#96C6CC" stroke-width="0.588679" stroke-miterlimit="10"/>
<path opacity="0.25" d="M1034.51 -146.355C793.457 77.4531 396.338 54.8702 181.035 -191.083" stroke="#96C6CC" stroke-width="0.588679" stroke-miterlimit="10"/>
<path opacity="0.25" d="M195.967 -190.301C415.786 84.4736 846.405 109.033 1095.76 -143.145" stroke="#96C6CC" stroke-width="0.588679" stroke-miterlimit="10"/>
<path opacity="0.25" d="M972.311 -149.614C741.078 46.2052 375.805 26.5256 166.926 -191.823" stroke="#96C6CC" stroke-width="0.588679" stroke-miterlimit="10"/>
<path opacity="0.25" d="M909.173 -152.923C688.605 16.0594 355.496 -1.45591 153.992 -192.501" stroke="#96C6CC" stroke-width="0.588679" stroke-miterlimit="10"/>
<rect width="1440" height="293" transform="matrix(-1 6.00718e-10 6.00718e-10 1 1440 0)" fill="url(#paint0_linear_680_467)"/>
</g>
<defs>
<linearGradient id="paint0_linear_680_467" x1="895" y1="293" x2="895" y2="-8.19454e-06" gradientUnits="userSpaceOnUse">
<stop stop-color="white" stop-opacity="0"/>
<stop offset="1" stop-color="white"/>
</linearGradient>
<clipPath id="clip0_680_467">
<rect width="1440" height="794" fill="white"/>
</clipPath>
</defs>
</svg>
