<svg width="16" height="16" viewBox="0 0 16 16" fill="none" xmlns="http://www.w3.org/2000/svg">
<path id="Vector" d="M1.61225 7.30513C2.11436 7.31488 2.48536 7.46692 2.79983 7.76029C3.73849 8.63552 4.67652 9.5114 5.61392 10.3879C5.93409 10.6871 6.09228 10.6803 6.38252 10.3426C9.28909 6.97326 12.1955 3.60392 15.1017 0.234573C15.2443 0.0674214 15.4081 -0.0334544 15.6324 0.035258C15.8352 0.0976352 15.9601 0.244319 15.9711 0.455817C15.9713 0.574907 15.9384 0.691587 15.876 0.792069C14.8778 2.45156 13.8762 4.10846 12.871 5.76275C10.9848 8.88162 9.09908 11.9989 7.21383 15.1145C6.88368 15.6603 6.42433 15.9824 5.78873 15.9863C5.56516 15.9909 5.34361 15.9421 5.14155 15.8439C4.9395 15.7456 4.76247 15.6005 4.62443 15.42C3.20535 13.6423 1.79007 11.8613 0.378585 10.077C-0.0536942 9.5278 -0.114023 8.89818 0.188572 8.2632C0.491168 7.62822 1.00943 7.33339 1.61225 7.30513Z" fill="#E56F20"/>
</svg>
