<svg width="17" height="16" viewBox="0 0 17 16" fill="none" xmlns="http://www.w3.org/2000/svg">
<path id="Vector" d="M2.32318 7.30513C2.82529 7.31488 3.19629 7.46692 3.51077 7.76029C4.44943 8.63552 5.38746 9.5114 6.32486 10.3879C6.64503 10.6871 6.80322 10.6803 7.09346 10.3426C10 6.97326 12.9064 3.60392 15.8127 0.234573C15.9552 0.0674214 16.1191 -0.0334544 16.3433 0.035258C16.5461 0.0976352 16.6711 0.244319 16.682 0.455817C16.6823 0.574907 16.6493 0.691587 16.587 0.792069C15.5888 2.45156 14.5871 4.10846 13.5819 5.76275C11.6957 8.88162 9.81001 11.9989 7.92477 15.1145C7.59462 15.6603 7.13526 15.9824 6.49967 15.9863C6.2761 15.9909 6.05455 15.9421 5.85249 15.8439C5.65043 15.7456 5.4734 15.6005 5.33536 15.42C3.91628 13.6423 2.501 11.8613 1.08952 10.077C0.657243 9.5278 0.596914 8.89818 0.89951 8.2632C1.20211 7.62822 1.72037 7.33339 2.32318 7.30513Z" fill="white"/>
</svg>
