<svg width="27" height="20" viewBox="0 0 27 20" fill="none" xmlns="http://www.w3.org/2000/svg">
<g id="Vector">
<path d="M13.8676 3.0319C13.803 2.31588 14.146 1.68566 14.6132 1.0954C15.1494 0.416919 15.888 0.142993 16.7229 0.0230889C17.1166 -0.0334511 17.5012 0.023089 17.871 0.0932767C18.9242 0.292629 19.9385 1.41661 20.1334 2.50013C20.2089 2.92271 20.2208 3.34092 20.1219 3.75473C20.0653 3.9921 20.1388 4.1934 20.2616 4.36644C20.6552 4.92696 21.0603 5.48359 21.5727 5.94663C21.9604 6.29659 22.3599 6.63778 22.8063 6.91854C22.8725 6.96381 22.9475 6.99541 23.0266 7.01141C23.1057 7.02741 23.1873 7.02749 23.2665 7.01163C23.9071 6.88734 24.5209 6.99019 25.1233 7.22999C25.6709 7.45188 26.1382 7.82941 26.4652 8.314C26.9478 9.01198 27.0934 9.80549 26.9438 10.6507C26.7669 11.6499 26.173 12.3327 25.3037 12.8197C24.7441 13.1331 24.1288 13.1998 23.4986 13.1881C23.369 13.1862 23.2407 13.1623 23.1194 13.1175C22.9017 13.0307 22.7645 13.1082 22.6139 13.2276C21.9937 13.7184 21.4127 14.2405 20.9524 14.8921C20.7099 15.2333 20.4455 15.5628 20.2218 15.9201C20.1319 16.0672 20.1021 16.2422 20.1383 16.4099C20.2477 17.0616 20.1175 17.6772 19.8044 18.246C18.8342 20.0105 16.5694 20.3624 15.0475 19.235C14.4298 18.7768 14.0814 18.1763 13.896 17.4803C13.811 17.1615 13.8264 16.8048 13.8667 16.4655C13.8915 16.2545 13.8771 16.042 13.9661 15.8319C14.0361 15.6696 13.8826 15.5243 13.803 15.3932C13.1356 14.3087 12.1913 13.5532 10.9487 13.1696C10.8138 13.1294 10.671 13.1214 10.5323 13.1462C10.0984 13.2145 9.67443 13.1613 9.25645 13.0487C9.20264 13.0311 9.14516 13.0272 9.08937 13.0372C9.03357 13.0473 8.98129 13.071 8.93738 13.1063C7.83999 13.8925 7.00702 14.898 6.35793 16.06C6.30028 16.1628 6.30823 16.2613 6.32115 16.3661C6.49461 17.6163 6.07265 18.6213 5.04634 19.388C4.49426 19.8058 3.81089 20.0216 3.11399 19.9983C2.56033 19.9851 2.03152 19.8106 1.54743 19.5177C1.01862 19.1975 0.56138 18.7832 0.317351 18.2436C-0.143371 17.2249 -0.118523 16.1906 0.497761 15.2114C0.858024 14.6402 1.3974 14.199 2.035 13.9539C2.6026 13.7319 3.22629 13.6873 3.82073 13.8262C3.93967 13.8575 4.06594 13.8486 4.17907 13.8008C4.7208 13.5625 5.23669 13.2764 5.68598 12.8942C6.10247 12.5399 6.47274 12.1407 6.75106 11.6689C6.84151 11.5153 6.92551 11.3589 7.01348 11.2039C7.07709 11.0918 7.07013 10.9772 7.04429 10.8544C6.91358 10.232 6.90662 9.62027 7.15115 9.01198C7.30025 8.63813 7.4747 8.27501 7.74755 7.98597C8.12605 7.57833 8.60741 7.27572 9.14314 7.10863C10.5347 6.67434 12.0938 7.21537 12.8354 8.45048C13.1743 9.0149 13.3637 9.62904 13.2698 10.2963C13.2296 10.5687 13.2883 10.8463 13.4358 11.0806C14.0356 12.0812 14.7498 12.9864 15.6723 13.7258C15.807 13.8335 15.9208 13.872 16.0927 13.8125C16.6727 13.6229 17.2642 13.6283 17.8506 13.7867C17.9688 13.8214 18.0961 13.8106 18.2065 13.7565C19.3789 13.2354 20.2213 12.3873 20.7909 11.2633C20.8148 11.2215 20.8295 11.1752 20.8342 11.1275C20.839 11.0797 20.8335 11.0316 20.8182 10.986C20.6383 10.4339 20.623 9.84287 20.774 9.28249C20.8001 9.19677 20.7961 9.10493 20.7626 9.02173C20.2447 7.78418 19.4296 6.80838 18.1951 6.19472C18.0503 6.11852 17.8819 6.09768 17.7224 6.13624C16.2279 6.45452 14.8567 5.75751 14.1559 4.45758C13.9119 4.00867 13.8493 3.77861 13.8676 3.0319Z" fill="#E56F20"/>
<path d="M23.6223 18.6954C22.51 18.7832 21.5314 17.7011 21.4758 16.8311C21.4305 16.1243 21.6527 15.537 22.1616 15.0403C22.5269 14.6845 22.9901 14.4393 23.4683 14.4423C25.0512 14.4515 25.7744 15.5292 25.8017 16.5688C25.8295 17.6875 24.8062 18.7642 23.6223 18.6954Z" fill="#E56F20"/>
<path d="M2.75118 10.8217C2.70396 10.1262 3.35504 9.49208 4.10402 9.53059C4.81424 9.56763 5.39027 10.1194 5.36492 10.8266C5.33709 11.6065 4.80628 12.0778 4.02649 12.1124C3.4266 12.1387 2.66271 11.4257 2.75118 10.8217Z" fill="#E56F20"/>
<path d="M14.5659 8.92278C14.5267 8.30913 15.144 7.67987 15.8253 7.63991C16.5147 7.59945 17.1523 8.14438 17.1956 8.8097C17.2453 9.55593 16.715 10.1662 15.9571 10.2013C15.3149 10.2315 14.5649 9.79428 14.5659 8.92278Z" fill="#E56F20"/>
<path d="M10.5874 17.4433C10.6332 18.247 9.91349 18.7291 9.3146 18.7349C9.14061 18.7366 8.96805 18.704 8.80709 18.6392C8.64614 18.5744 8.50004 18.4787 8.37742 18.3576C8.25481 18.2365 8.15815 18.0926 8.09317 17.9343C8.02818 17.776 7.99617 17.6066 7.99904 17.436C8.00286 17.1002 8.13993 16.779 8.38118 16.5407C8.62243 16.3024 8.94887 16.1656 9.29124 16.1594C9.84043 16.1443 10.6535 16.6678 10.5874 17.4433Z" fill="#E56F20"/>
<path d="M11.4154 14.3014C11.8155 14.2726 12.2315 14.6138 12.2156 15.0783C12.1982 15.5882 11.8508 15.8909 11.3772 15.9152C10.9686 15.9367 10.5899 15.516 10.5869 15.0866C10.5835 14.6392 10.9428 14.2985 11.4154 14.3014Z" fill="#E56F20"/>
<path d="M17.9744 12.0783C17.5311 12.0744 17.1871 11.723 17.1886 11.2746C17.1919 11.0659 17.2795 10.867 17.4323 10.7217C17.5851 10.5763 17.7904 10.4964 18.0032 10.4996C18.111 10.4985 18.2179 10.5186 18.3176 10.5587C18.4173 10.5987 18.5079 10.658 18.5839 10.7328C18.6599 10.8077 18.7199 10.8968 18.7604 10.9948C18.8008 11.0927 18.8208 11.1976 18.8193 11.3033C18.8059 11.7508 18.4446 12.0827 17.9744 12.0783Z" fill="#E56F20"/>
</g>
</svg>
